# Blender v2.73 (sub 0) OBJ File: 'Piano_BS.blend'
# www.blender.org
g Bench_Cube.001
v -1.809871 1.518066 3.247599
v 1.034787 1.559318 3.280728
v -1.739391 1.431249 2.937184
v -1.178409 1.665789 3.122354
v -1.774215 1.543709 2.919611
v 0.852021 1.556134 4.704967
v -1.896586 1.430902 4.314423
v -1.920307 1.562103 4.326559
v 1.010416 1.620038 3.290759
v -1.150614 1.429822 3.015587
v -0.116537 1.386998 3.171793
v -0.740504 1.430694 3.406262
v 0.270112 1.554160 4.634459
v 0.107351 1.384665 3.496745
v -1.781964 1.429866 3.288716
v -1.851479 1.618002 3.944401
v -1.835631 1.589701 3.620113
v -0.283836 1.511205 4.551248
v 0.890260 1.688227 3.640807
v 0.988908 1.602247 3.648794
v 0.358639 1.430956 3.908153
v 0.354899 1.615612 3.913138
v -0.213065 1.629651 4.007143
v -0.170199 1.614817 3.684979
v -1.261862 1.660914 3.855612
v -1.219147 1.655175 3.508554
v -0.646913 1.662570 3.212132
v -1.325145 1.535738 4.409632
v -0.998486 1.677047 3.737169
v -0.375050 1.405614 3.139290
v -0.161392 1.389754 3.529260
v -0.659605 1.424592 3.092950
v -0.714867 1.426429 3.774233
v -0.091679 1.477801 3.161398
v -0.131853 1.617474 3.259497
v 0.290895 1.670380 4.540121
v 0.420084 1.407810 3.221481
v -0.275563 1.429329 4.540346
v -0.276676 1.655120 4.360382
v 0.914935 1.687387 3.357277
v 0.824242 1.450867 4.687258
v 0.957934 1.466042 3.652522
v 0.579460 1.665645 3.597762
v -0.953802 1.676383 3.415677
v -0.156970 1.574221 3.539862
v 0.389030 1.415769 3.593074
v 0.394807 1.596823 3.587347
v -0.695165 1.649765 3.609128
v 0.831180 1.699011 3.941037
v -1.842510 1.506332 3.610813
v 0.096974 1.643907 3.867545
v 0.917741 1.467231 3.968672
v -1.814448 1.430995 3.627283
v -0.482448 1.649546 3.801983
v -1.276726 1.623853 4.016010
v -1.020879 1.676802 4.054343
v -0.227322 1.599266 4.167138
v -0.753031 1.613599 4.084096
v 0.306095 1.621805 4.239136
v 0.761904 1.694486 4.278153
v -1.457839 1.433598 3.991357
v -1.476692 1.669302 3.993335
v -1.283196 1.435995 4.024570
v -0.787653 1.655656 4.231143
v 0.045124 1.418797 4.213229
v 0.306036 1.431326 4.234348
v -0.190357 1.587515 3.848022
v -0.653545 1.620402 3.114262
v -0.738051 1.648527 3.913886
v -0.715790 1.612489 3.766069
v -0.548084 1.641792 3.467266
v -1.249348 1.433309 3.677294
v -1.810520 1.657124 4.248344
v -1.743962 1.671483 3.964765
v -1.849446 1.432665 3.942429
v 0.266176 1.439117 4.619183
v 0.531687 1.673937 3.929772
v -1.221016 1.429833 3.369341
v -1.208025 1.619584 3.374855
v -0.682105 1.614287 3.458343
v -1.704172 1.663939 3.306579
v -1.798682 1.593149 3.292782
v 0.943550 1.549887 3.979351
v 0.903920 1.554690 4.315450
v 0.923250 1.642932 3.969719
v -1.245993 1.622460 3.692292
v 0.374467 1.643383 3.759799
v -0.198698 1.401649 3.845514
v 0.866524 1.646365 4.309744
v -0.523305 1.653706 4.109816
v -1.880289 1.528589 3.942569
v -0.233746 1.413159 4.183086
v -0.257430 1.621007 4.517618
v -0.049569 1.571100 3.202578
v -0.634905 1.500658 3.083517
v -0.795271 1.581610 4.465569
v -0.497063 1.417862 4.118847
v -0.520974 1.412737 3.786456
v -0.664352 1.423961 3.463920
v -0.769078 1.662305 4.369888
v -0.368751 1.637704 3.504939
v -0.795121 1.433636 4.461640
v 0.110630 1.619898 3.565054
v 0.396887 1.630612 3.409366
v 0.113363 1.413221 3.877475
v 0.039828 1.655833 4.218297
v 0.022165 1.432600 4.585829
v 0.463203 1.512885 3.210119
v 0.998163 1.464555 3.291293
v 0.440059 1.627139 3.273872
v 0.797219 1.645413 4.657921
v 0.873319 1.457049 4.307632
v 0.499292 1.676467 4.266058
v 0.783326 1.685722 4.506153
v 0.335742 1.656797 4.080714
v -1.150474 1.538745 3.000394
v -1.334078 1.435011 4.394654
v -1.331400 1.622992 4.372900
v -0.990335 1.434410 4.438735
v -0.968691 1.435580 3.750868
v -0.793749 1.429357 4.078909
v -1.706827 1.642645 2.987629
v -1.176776 1.607837 3.020327
v -1.566056 1.424837 3.310797
v -1.314503 1.675437 4.257957
v -1.730392 1.666847 3.606188
v -1.420733 1.661814 3.667221
v -1.256265 1.647562 3.309826
vt 0.384358 0.913772
vt 0.449296 0.882507
vt 0.475009 0.903160
vt 0.367844 0.895425
vt 0.380379 0.942552
vt 0.382759 0.103352
vt 0.449206 0.136975
vt 0.431888 0.152742
vt 0.459238 0.127248
vt 0.986948 0.879040
vt 0.883420 0.879388
vt 0.882857 0.770430
vt 0.500317 0.251391
vt 0.480305 0.114256
vt 0.490161 0.741606
vt 0.795894 0.881039
vt 0.702038 0.884249
vt 0.700370 0.824346
vt 0.196675 0.113778
vt 0.294463 0.137077
vt 0.203897 0.145130
vt 0.039228 0.415548
vt 0.059595 0.578808
vt 0.013098 0.580604
vt 0.184512 0.913659
vt 0.179074 0.941597
vt 0.080444 0.901257
vt 0.289177 0.078865
vt 0.290679 0.106522
vt 0.191464 0.085991
vt 0.276765 0.951816
vt 0.280817 0.927373
vt 0.151625 0.139695
vt 0.988654 0.626456
vt 0.988863 0.722151
vt 0.885730 0.721431
vt 0.276842 0.662272
vt 0.279999 0.732857
vt 0.234450 0.731488
vt 0.013099 0.412373
vt 0.797915 0.430806
vt 0.795676 0.344143
vt 0.891621 0.428410
vt 0.890056 0.350973
vt 0.991011 0.427190
vt 0.992962 0.344069
vt 0.531561 0.259526
vt 0.512345 0.421495
vt 0.372629 0.348370
vt 0.371456 0.426575
vt 0.327718 0.425441
vt 0.105269 0.876561
vt 0.085584 0.096114
vt 0.108730 0.116916
vt 0.063963 0.245652
vt 0.992618 0.120785
vt 0.993529 0.276050
vt 0.886709 0.278684
vt 0.373909 0.217594
vt 0.373997 0.269212
vt 0.325553 0.268559
vt 0.533256 0.597173
vt 0.520653 0.746149
vt 0.374877 0.137273
vt 0.291817 0.052209
vt 0.393377 0.061698
vt 0.704082 0.727795
vt 0.330421 0.732653
vt 0.383268 0.748756
vt 0.280309 0.781259
vt 0.789397 0.724521
vt 0.697008 0.595025
vt 0.369666 0.663258
vt 0.326467 0.581062
vt 0.370672 0.584104
vt 0.709952 0.431779
vt 0.691486 0.359479
vt 0.280062 0.580024
vt 0.371824 0.491351
vt 0.279534 0.511540
vt 0.285313 0.341053
vt 0.283498 0.268722
vt 0.192296 0.855219
vt 0.236168 0.580697
vt 0.185997 0.658129
vt 0.883430 0.502775
vt 0.236750 0.265900
vt 0.191381 0.786077
vt 0.189903 0.731247
vt 0.883131 0.585465
vt 0.799718 0.645125
vt 0.796840 0.574782
vt 0.122763 0.736719
vt 0.140183 0.583867
vt 0.186013 0.578682
vt 0.122870 0.425186
vt 0.186772 0.510223
vt 0.098835 0.573748
vt 0.184366 0.420739
vt 0.107994 0.250578
vt 0.191618 0.266301
vt 0.182905 0.340869
vt 0.481342 0.407575
vt 0.456926 0.430959
vt 0.424272 0.270254
vt 0.075487 0.410520
vt 0.610500 0.432179
vt 0.231636 0.423958
vt 0.795516 0.275693
vt 0.473637 0.593248
vt 0.443249 0.586253
vt 0.608370 0.584044
vt 0.610856 0.504312
vt 0.710054 0.572053
vt 0.793076 0.521148
vt 0.431106 0.862526
vt 0.468639 0.744833
vt 0.127592 0.853820
vt 0.190259 0.886982
vt 0.708057 0.278658
vt 0.704461 0.120157
vt 0.792476 0.120097
vt 0.366570 0.731724
vt 0.374170 0.544993
vt 0.463222 0.259484
vt 0.186393 0.057607
vt 0.279661 0.424339
vt 0.195591 0.213069
vt 0.987955 0.572198
vt 0.058845 0.744279
vt 0.087827 0.742308
vt 0.021170 0.316445
vt 0.605180 0.283370
vt 0.120853 0.135701
vt 0.886918 0.120560
vt 0.285777 0.218736
vt 0.027816 0.754229
vt 0.017508 0.643517
vt 0.437145 0.737524
vt 0.363024 0.864870
vt 0.537656 0.509162
vt 0.510309 0.589810
vt 0.285345 0.867339
vt 0.278360 0.903035
vt 0.541167 0.428191
vt 0.031781 0.240963
vt 0.604741 0.721169
vt 0.604284 0.885141
vt 0.604093 0.121799
vn -0.991700 -0.077900 -0.101900
vn -0.628500 0.184200 -0.755600
vn -0.399100 -0.680500 -0.614500
vn -0.842400 0.532900 -0.079500
vn -0.580600 -0.811700 -0.063400
vn 0.942600 0.317600 0.103200
vn 0.587800 0.599800 -0.542800
vn 0.238100 0.934200 -0.265500
vn 0.809400 0.013900 -0.587000
vn -0.582900 -0.656100 0.479200
vn -0.583800 -0.808900 -0.069000
vn 0.008100 -0.999900 0.005500
vn 0.085500 0.171000 -0.981500
vn 0.550200 -0.680900 -0.483400
vn 0.139600 0.103000 -0.984800
vn -0.562500 -0.825400 -0.047000
vn -0.002500 -1.000000 0.004600
vn 0.717800 0.688400 0.103900
vn 0.213300 0.976700 0.023700
vn 0.146700 0.988600 0.033400
vn -0.147600 0.081400 0.985700
vn -0.135600 0.423300 0.895800
vn -0.109200 -0.714200 0.691400
vn -0.994000 -0.003900 -0.109700
vn 0.990100 -0.052400 0.130100
vn 0.792400 0.599500 0.112600
vn 0.990600 0.035700 0.131900
vn -0.984800 -0.141000 -0.101200
vn 0.354700 0.922800 0.150300
vn -0.078400 -0.721400 0.688000
vn -0.088000 -0.751200 0.654200
vn 0.002300 -1.000000 0.002500
vn 0.004300 1.000000 -0.004600
vn 0.009500 0.999600 -0.024200
vn -0.012200 0.999900 -0.005400
vn -0.097700 -0.744600 0.660300
vn -0.003600 -0.999400 0.034100
vn 0.042200 -0.998100 0.044900
vn -0.000700 -0.999300 0.035800
vn 0.027300 -0.999200 0.029700
vn -0.082500 -0.734400 0.673700
vn 0.124400 -0.759000 -0.639000
vn 0.118500 0.102600 -0.987600
vn -0.041700 0.998500 -0.033800
vn 0.065500 0.996200 -0.056200
vn 0.032300 0.998700 -0.040300
vn -0.755600 0.297400 0.583500
vn 0.423300 -0.675500 0.603700
vn 0.630900 0.161400 0.758900
vn -0.131700 0.268400 0.954300
vn -0.066300 -0.740100 0.669100
vn 0.043900 -0.998900 0.016000
vn -0.158900 0.986400 -0.042300
vn -0.137100 0.989500 -0.046100
vn -0.092000 0.994400 -0.051300
vn 0.072900 -0.761600 -0.643900
vn 0.093100 -0.749400 -0.655500
vn 0.320400 0.947200 0.012400
vn 0.615400 -0.784700 0.073800
vn 0.649400 -0.755700 0.084600
vn 0.003700 -0.999900 0.009400
vn -0.023700 0.999300 -0.028700
vn 0.018200 0.995900 0.088600
vn 0.067900 0.997600 -0.014000
vn 0.001900 -0.999900 0.009900
vn -0.036400 -0.999300 0.001200
vn 0.013800 0.999900 -0.001300
vn 0.047400 0.998800 0.008200
vn 0.015800 0.999600 -0.022600
vn -0.031600 -0.999200 0.022100
vn 0.036200 -0.999000 0.027500
vn 0.031600 0.999500 0.005300
vn 0.119700 0.992800 0.006900
vn 0.037100 0.999200 -0.014500
vn -0.038500 0.997700 -0.055200
vn -0.095400 0.994300 -0.046800
vn -0.212700 0.976900 -0.019700
vn 0.046900 0.998700 -0.015800
vn 0.020100 0.999700 0.010800
vn -0.034300 -0.999300 0.016100
vn -0.067200 0.997500 -0.020100
vn 0.065400 0.997500 -0.025200
vn 0.004300 0.999900 0.012000
vn -0.027400 -0.999600 0.002600
vn -0.035100 -0.992300 0.118400
vn -0.043600 -0.999000 0.004700
vn -0.006200 0.986500 0.163700
vn 0.037000 0.993700 -0.105700
vn 0.023800 0.999200 -0.031800
vn 0.002600 0.999900 0.008700
vn 0.016700 0.999500 -0.024900
vn -0.050400 0.948500 0.312700
vn -0.013900 0.998900 -0.044600
vn -0.082900 0.921900 0.378300
vn -0.066100 0.997500 0.022400
vn -0.025200 0.998800 -0.041400
vn 0.118600 0.643100 -0.756600
vn 0.092700 0.967300 -0.236100
vn -0.101200 0.994800 0.006600
vn -0.110000 0.735900 0.668100
vn 0.050400 -0.765800 -0.641100
vn 0.002900 0.999500 -0.029500
vn 0.063800 -0.997400 0.032500
vn 0.141600 0.659100 -0.738600
vn 0.069900 0.985200 -0.156600
vn 0.037500 -0.778300 -0.626700
vn -0.076000 -0.997100 -0.006900
vn -0.073900 -0.987100 0.142100
vn -0.294700 0.831500 -0.470800
vn 0.101700 0.620000 -0.777900
vn -0.323300 0.901300 0.288200
vn -0.749900 0.657400 -0.074300
vn 0.085400 -0.995500 0.039900
vn 0.120600 0.987900 0.098000
vn -0.051500 0.998600 0.014300
vn -0.039600 0.846500 -0.530800
vn 0.605200 -0.793500 0.063700
vn 0.010800 0.998700 -0.049300
vn -0.115500 0.993000 -0.024100
vn -0.130400 0.120500 0.984100
vn -0.076600 0.700400 0.709600
vn 0.357900 0.759400 0.543300
vn -0.136000 0.989000 -0.057300
vn 0.023200 0.972200 -0.232900
vn -0.296200 0.954400 -0.037000
vn 0.158900 0.049500 -0.986000
vn -0.297500 0.953600 -0.044900
vn -0.868900 0.483700 -0.105000
s 1
f 1/1/1 5/2/2 3/3/3
f 1/1/1 82/4/4 5/2/2
f 3/3/3 15/5/5 1/1/1
f 20/6/6 9/7/7 40/8/8
f 9/7/7 20/6/6 2/9/9
f 7/10/10 75/11/11 61/12/12
f 108/13/13 9/7/7 2/9/9
f 108/13/13 2/9/9 109/14/14
f 3/3/3 5/2/2 116/15/15
f 53/16/16 15/17/5 124/18/17
f 89/19/18 49/20/19 60/21/20
f 18/22/21 96/23/22 102/24/23
f 91/25/24 75/26/11 7/27/10
f 83/28/25 85/29/26 84/30/27
f 15/5/5 53/31/16 50/32/28
f 89/19/18 60/21/20 114/33/29
f 119/34/30 117/35/31 63/36/32
f 29/37/33 86/38/34 25/39/35
f 38/40/36 18/22/21 102/24/23
f 88/41/37 105/42/38 92/43/39
f 65/44/40 38/45/36 92/43/39
f 65/44/40 107/46/41 38/45/36
f 108/13/13 37/47/42 34/48/43
f 103/49/44 45/50/45 24/51/46
f 7/27/10 8/52/47 91/25/24
f 41/53/48 6/54/49 13/55/50
f 41/56/48 76/57/51 66/58/52
f 43/59/53 47/60/54 87/61/55
f 32/62/56 10/63/57 116/15/15
f 19/64/58 40/8/8 43/59/53
f 52/65/59 42/66/60 83/28/25
f 50/32/28 1/1/1 15/5/5
f 82/4/4 1/1/1 50/32/28
f 53/16/16 124/18/17 78/67/61
f 26/68/62 128/69/63 127/70/64
f 72/71/65 78/67/61 12/72/66
f 44/73/67 48/74/68 80/75/69
f 31/76/70 105/42/38 88/41/37
f 31/76/70 14/77/71 105/42/38
f 87/61/55 47/60/54 103/49/44
f 86/38/34 26/68/62 127/70/64
f 29/37/33 70/78/72 48/74/68
f 24/51/46 101/79/73 54/80/74
f 87/61/55 51/81/75 22/82/76
f 53/31/16 91/25/24 50/32/28
f 2/9/9 42/66/60 109/14/14
f 25/39/35 127/70/64 74/83/77
f 69/84/78 29/37/33 56/85/79
f 88/41/37 92/43/39 97/86/80
f 115/87/81 22/82/76 51/81/75
f 62/88/82 55/89/83 25/39/35
f 91/25/24 53/31/16 75/26/11
f 121/90/84 120/91/85 33/92/86
f 125/93/87 55/89/83 62/88/82
f 64/94/88 58/95/89 56/85/79
f 39/96/90 90/97/91 100/98/92
f 90/97/91 39/96/90 57/99/93
f 36/100/94 59/101/95 106/102/96
f 94/103/97 35/104/98 104/105/99
f 39/96/90 36/100/94 106/102/96
f 36/100/94 39/96/90 93/106/100
f 65/44/40 76/57/51 107/46/41
f 14/77/71 31/76/70 11/107/101
f 106/102/96 51/81/75 23/108/102
f 21/109/103 66/58/52 105/42/38
f 39/96/90 106/102/96 57/99/93
f 35/104/98 68/110/104 27/111/105
f 12/72/66 32/112/56 30/113/106
f 99/114/107 98/115/108 33/92/86
f 69/84/78 90/97/91 54/80/74
f 54/80/74 70/78/72 69/84/78
f 90/97/91 58/95/89 64/94/88
f 120/91/85 121/90/84 63/36/32
f 116/15/15 5/2/2 122/116/109
f 122/116/109 123/117/110 116/15/15
f 53/16/16 72/71/65 61/12/12
f 73/118/111 74/83/77 16/119/112
f 46/120/113 42/121/60 52/122/59
f 42/66/60 2/9/9 20/6/6
f 128/69/63 79/123/114 44/73/67
f 80/75/69 71/124/115 27/111/105
f 35/104/98 45/50/45 103/49/44
f 43/59/53 110/125/116 104/105/99
f 52/65/59 83/28/25 84/30/27
f 112/126/117 52/65/59 84/30/27
f 24/51/46 67/127/118 51/81/75
f 86/38/34 29/37/33 26/68/62
f 26/68/62 29/37/33 44/73/67
f 84/30/27 6/54/49 41/53/48
f 41/53/48 112/126/117 84/30/27
f 109/14/14 37/47/42 108/13/13
f 115/87/81 59/101/95 113/128/119
f 91/25/24 8/52/47 16/119/112
f 114/33/29 6/54/49 89/19/18
f 121/90/84 102/129/23 119/34/30
f 28/130/120 118/131/121 8/52/47
f 12/72/66 30/113/106 99/114/107
f 93/106/100 100/98/92 96/23/22
f 33/92/86 98/115/108 88/41/37
f 31/76/70 98/115/108 99/114/107
f 90/97/91 23/108/102 54/80/74
f 35/104/98 27/111/105 101/79/73
f 90/97/91 64/94/88 100/98/92
f 18/22/21 107/132/41 13/55/50
f 11/107/101 37/133/42 14/77/71
f 110/125/116 108/13/13 34/48/43
f 94/103/97 110/125/116 34/48/43
f 6/54/49 111/134/122 13/55/50
f 112/135/117 41/56/48 66/58/52
f 113/128/119 36/100/94 114/33/29
f 115/87/81 113/128/119 60/21/20
f 42/121/60 46/120/113 37/133/42
f 60/21/20 77/136/123 115/87/81
f 114/33/29 60/21/20 113/128/119
f 28/130/120 96/23/22 118/131/121
f 117/137/31 119/138/30 28/130/120
f 96/23/22 28/130/120 119/138/30
f 96/23/22 119/138/30 102/24/23
f 96/23/22 100/98/92 125/93/87
f 29/37/33 48/74/68 44/73/67
f 120/91/85 72/71/65 33/92/86
f 116/15/15 10/63/57 3/3/3
f 125/93/87 73/118/111 118/131/121
f 7/10/10 61/12/12 63/36/32
f 78/67/61 72/71/65 53/16/16
f 4/139/124 122/116/109 81/140/125
f 74/83/77 125/93/87 62/88/82
f 9/7/7 108/13/13 110/125/116
f 5/2/2 82/4/4 122/116/109
f 114/33/29 111/134/122 6/54/49
f 117/137/31 28/130/120 8/52/47
f 30/141/106 32/62/56 95/142/126
f 126/143/127 17/144/128 16/119/112
f 6/54/49 84/30/27 89/19/18
f 84/30/27 85/29/26 89/19/18
f 89/19/18 85/29/26 49/20/19
f 85/29/26 20/6/6 19/64/58
f 49/20/19 85/29/26 19/64/58
f 86/38/34 127/70/64 25/39/35
f 26/68/62 79/123/114 128/69/63
f 68/110/104 123/117/110 4/139/124
f 123/117/110 68/110/104 116/15/15
f 95/142/126 116/15/15 68/110/104
f 26/68/62 44/73/67 79/123/114
f 56/85/79 55/89/83 125/93/87
f 11/145/101 30/141/106 34/48/43
f 38/45/36 102/129/23 92/43/39
f 100/98/92 93/106/100 39/96/90
f 110/125/116 94/103/97 104/105/99
f 38/40/36 107/132/41 18/22/21
f 18/22/21 13/55/50 93/106/100
f 107/132/41 76/146/51 13/55/50
f 93/106/100 13/55/50 36/100/94
f 11/145/101 34/48/43 37/47/42
f 30/113/106 11/107/101 99/114/107
f 124/18/17 10/147/57 78/67/61
f 20/6/6 83/28/25 42/66/60
f 83/28/25 20/6/6 85/29/26
f 27/111/105 44/73/67 80/75/69
f 45/50/45 35/104/98 101/79/73
f 37/133/42 46/120/113 14/77/71
f 47/60/54 104/105/99 103/49/44
f 45/50/45 101/79/73 24/51/46
f 103/49/44 51/81/75 87/61/55
f 49/20/19 19/64/58 43/59/53
f 82/4/4 50/32/28 17/144/128
f 72/71/65 12/72/66 33/92/86
f 33/92/86 12/72/66 99/114/107
f 50/32/28 91/25/24 17/144/128
f 72/71/65 120/91/85 63/36/32
f 98/115/108 31/76/70 88/41/37
f 23/108/102 67/127/118 54/80/74
f 106/102/96 115/87/81 51/81/75
f 60/21/20 49/20/19 77/136/123
f 74/83/77 126/143/127 16/119/112
f 72/71/65 63/36/32 61/12/12
f 69/84/78 56/85/79 58/95/89
f 57/99/93 23/108/102 90/97/91
f 106/102/96 59/101/95 115/87/81
f 119/34/30 63/36/32 121/90/84
f 66/58/52 76/57/51 65/44/40
f 46/120/113 21/109/103 14/77/71
f 21/109/103 105/42/38 14/77/71
f 67/127/118 23/108/102 51/81/75
f 105/42/38 65/44/40 92/43/39
f 96/23/22 18/22/21 93/106/100
f 121/90/84 97/86/80 102/129/23
f 80/75/69 48/74/68 71/124/115
f 44/73/67 4/139/124 128/69/63
f 10/147/57 32/112/56 78/67/61
f 29/37/33 69/84/78 70/78/72
f 12/72/66 78/67/61 32/112/56
f 3/148/3 124/18/17 15/17/5
f 8/52/47 7/27/10 117/137/31
f 126/143/127 74/83/77 127/70/64
f 81/140/125 126/143/127 128/69/63
f 36/100/94 13/55/50 111/134/122
f 36/100/94 111/134/122 114/33/29
f 77/136/123 22/82/76 115/87/81
f 113/128/119 59/101/95 36/100/94
f 81/140/125 122/116/109 82/4/4
f 19/64/58 20/6/6 40/8/8
f 104/105/99 47/60/54 43/59/53
f 82/4/4 17/144/128 126/143/127
f 126/143/127 81/140/125 82/4/4
f 24/51/46 54/80/74 67/127/118
f 77/136/123 87/61/55 22/82/76
f 51/81/75 103/49/44 24/51/46
f 48/74/68 70/78/72 54/80/74
f 48/74/68 54/80/74 101/79/73
f 17/144/128 91/25/24 16/119/112
f 57/99/93 106/102/96 23/108/102
f 58/95/89 90/97/91 69/84/78
f 55/89/83 56/85/79 25/39/35
f 8/52/47 73/118/111 16/119/112
f 8/52/47 118/131/121 73/118/111
f 34/48/43 95/142/126 94/103/97
f 68/110/104 94/103/97 95/142/126
f 94/103/97 68/110/104 35/104/98
f 95/142/126 34/48/43 30/141/106
f 31/76/70 99/114/107 11/107/101
f 92/43/39 102/129/23 97/86/80
f 97/86/80 33/92/86 88/41/37
f 101/79/73 27/111/105 71/124/115
f 71/124/115 48/74/68 101/79/73
f 33/92/86 97/86/80 121/90/84
f 35/104/98 103/49/44 104/105/99
f 105/42/38 66/58/52 65/44/40
f 13/55/50 76/146/51 41/53/48
f 9/7/7 110/125/116 40/8/8
f 37/133/42 109/149/14 42/121/60
f 43/59/53 40/8/8 110/125/116
f 52/122/59 112/135/117 21/109/103
f 46/120/113 52/122/59 21/109/103
f 49/20/19 87/61/55 77/136/123
f 112/135/117 66/58/52 21/109/103
f 87/61/55 49/20/19 43/59/53
f 118/131/121 96/23/22 125/93/87
f 64/94/88 125/93/87 100/98/92
f 125/93/87 64/94/88 56/85/79
f 4/139/124 44/73/67 27/111/105
f 27/111/105 68/110/104 4/139/124
f 25/39/35 56/85/79 29/37/33
f 3/148/3 10/147/57 124/18/17
f 4/139/124 123/117/110 122/116/109
f 128/69/63 4/139/124 81/140/125
f 117/35/31 7/10/10 63/36/32
f 74/83/77 73/118/111 125/93/87
f 62/88/82 25/39/35 74/83/77
f 127/70/64 128/69/63 126/143/127
f 95/142/126 32/62/56 116/15/15
f 75/11/11 53/16/16 61/12/12
